<?xml version="1.0" encoding="UTF-8" standalone="no"?>
<!-- Created with Inkscape (http://www.inkscape.org/) -->

<svg
   id="svg4776"
   sodipodi:docname="tel.svg"
   viewBox="0 0 300 300"
   version="1.1"
   inkscape:version="1.3.2 (091e20e, 2023-11-25, custom)"
   width="100%"
   height="100%"
   xmlns:inkscape="http://www.inkscape.org/namespaces/inkscape"
   xmlns:sodipodi="http://sodipodi.sourceforge.net/DTD/sodipodi-0.dtd"
   xmlns="http://www.w3.org/2000/svg"
   xmlns:svg="http://www.w3.org/2000/svg"
   xmlns:rdf="http://www.w3.org/1999/02/22-rdf-syntax-ns#"
   xmlns:cc="http://creativecommons.org/ns#"
   xmlns:dc="http://purl.org/dc/elements/1.1/">
  <title
     id="title3415">Mobile Icon - White on Black</title>
  <defs
     id="defs16" />
  <sodipodi:namedview
     id="base"
     bordercolor="#666666"
     inkscape:pageshadow="2"
     inkscape:window-y="-9"
     pagecolor="#ffffff"
     inkscape:window-height="991"
     inkscape:window-maximized="1"
     inkscape:zoom="1.4"
     inkscape:window-x="-9"
     showgrid="false"
     borderopacity="1.0"
     inkscape:current-layer="layer1"
     inkscape:cx="-15.357143"
     inkscape:cy="152.5"
     inkscape:window-width="1920"
     inkscape:pageopacity="0.0"
     inkscape:document-units="px"
     inkscape:showpageshadow="2"
     inkscape:pagecheckerboard="0"
     inkscape:deskcolor="#d1d1d1" />
  <g
     id="layer1"
     inkscape:label="Layer 1"
     inkscape:groupmode="layer"
     transform="translate(-231.54,-375.82)">
    <path
       id="path3794-5"
       style="color:#000000;fill:#555353;fill-opacity:1"
       d="M 381.54 382.37078 A 143.45773 143.45013 0 0 0 238.08297 525.82 A 143.45773 143.45013 0 0 0 381.54 669.26922 A 143.45773 143.45013 0 0 0 524.99703 525.82 A 143.45773 143.45013 0 0 0 381.54 382.37078 z M 344.29 425.85516 L 418.79 425.85516 C 429.10778 425.85516 437.41305 432.79281 437.41305 441.40984 L 437.41305 610.23211 C 437.41305 618.84915 429.10778 625.78484 418.79 625.78484 L 344.29 625.78484 C 333.97222 625.78484 325.66695 618.84915 325.66695 610.23211 L 325.66695 441.40984 C 325.66695 432.79281 333.97222 425.85516 344.29 425.85516 z M 368.35641 433.85711 C 367.24841 433.85711 366.35641 434.70815 366.35641 435.76727 C 366.35641 436.82637 367.24841 437.67937 368.35641 437.67937 L 394.72359 437.67937 C 395.83159 437.67937 396.72359 436.82637 396.72359 435.76727 C 396.72359 434.70815 395.83159 433.85711 394.72359 433.85711 L 368.35641 433.85711 z M 345.48727 444.38445 C 341.54527 444.38445 338.37203 446.90199 338.37203 450.03094 L 338.37203 593.60711 C 338.37203 596.73606 341.54527 599.25555 345.48727 599.25555 L 417.59078 599.25555 C 421.53279 599.25555 424.70602 596.73606 424.70602 593.60711 L 424.70602 450.03094 C 424.70602 446.90199 421.53279 444.38445 417.59078 444.38445 L 345.48727 444.38445 z M 368.35641 607.83758 C 367.24841 607.83758 366.35641 608.72958 366.35641 609.83758 L 366.35641 614.92937 C 366.35641 616.03737 367.24841 616.92937 368.35641 616.92937 L 394.72359 616.92937 C 395.83159 616.92937 396.72359 616.03737 396.72359 614.92937 L 396.72359 609.83758 C 396.72359 608.72958 395.83159 607.83758 394.72359 607.83758 L 368.35641 607.83758 z " />
  </g>
  <metadata
     id="metadata14">
    <rdf:RDF>
      <cc:Work>
        <dc:format>image/svg+xml</dc:format>
        <dc:type
           rdf:resource="http://purl.org/dc/dcmitype/StillImage" />
        <cc:license
           rdf:resource="http://creativecommons.org/publicdomain/zero/1.0/" />
        <dc:publisher>
          <cc:Agent
             rdf:about="http://openclipart.org/">
            <dc:title>Rygle</dc:title>
          </cc:Agent>
        </dc:publisher>
        <dc:title>Mobile Icon - White on Black</dc:title>
        <dc:date>2015-03-29</dc:date>
        <dc:description>Mobile Icon - White on Black</dc:description>
        <dc:source />
        <dc:creator>
          <cc:Agent>
            <dc:title>Rygle</dc:title>
          </cc:Agent>
        </dc:creator>
        <dc:subject>
          <rdf:Bag>
            <rdf:li>Icon</rdf:li>
            <rdf:li>mobile</rdf:li>
            <rdf:li>communication</rdf:li>
            <rdf:li>communicate</rdf:li>
          </rdf:Bag>
        </dc:subject>
        <dc:rights>
          <cc:Agent>
            <dc:title>Public Domain</dc:title>
          </cc:Agent>
        </dc:rights>
        <dc:contributor>
          <cc:Agent>
            <dc:title>Rygle</dc:title>
          </cc:Agent>
        </dc:contributor>
      </cc:Work>
      <cc:License
         rdf:about="http://creativecommons.org/publicdomain/zero/1.0/">
        <cc:permits
           rdf:resource="http://creativecommons.org/ns#Reproduction" />
        <cc:permits
           rdf:resource="http://creativecommons.org/ns#Distribution" />
        <cc:permits
           rdf:resource="http://creativecommons.org/ns#DerivativeWorks" />
      </cc:License>
    </rdf:RDF>
  </metadata>
</svg>
